# xmcd CD database file
#
# Track frame offsets:
#	150
#	28515
#	57645
#	97568
#	139769
#
# Disc length: 2365 seconds
#
# Revision: 0
# Processed by: cddbd v1.5.2PL0 Copyright (c) Steve Scherf et al.
# Submitted via: CDex 1.70beta3
#
DISCID=38093b05
DTITLE=Art Blakey 2 - Blue Note Best Jazz Collection 35
DYEAR=2012
DGENRE=Jazz
TTITLE0=Blues March
TTITLE1=Lester Left Town
TTITLE2=Children Of The Night
TTITLE3=Bu's Delight
TTITLE4=Pensativa
EXTD=YEAR: 2012
EXTT0=
EXTT1=
EXTT2=
EXTT3=
EXTT4=
PLAYORDER=
